<?xml version="1.0" encoding="iso-8859-1"?>
<!-- Generator: Adobe Illustrator 16.0.0, SVG Export Plug-In . SVG Version: 6.00 Build 0)  -->
<!DOCTYPE svg PUBLIC "-//W3C//DTD SVG 1.1//EN" "http://www.w3.org/Graphics/SVG/1.1/DTD/svg11.dtd">
<svg version="1.1" id="Capa_1" xmlns="http://www.w3.org/2000/svg" xmlns:xlink="http://www.w3.org/1999/xlink" x="0px" y="0px"
	 width="612px" height="612px" viewBox="0 0 612 612" style="enable-background:new 0 0 612 612;" xml:space="preserve">
<g>
	<g>
		<path d="M611.507,525.047c0.48-18.543,0.591-53.156,0.412-118.938c-0.172-64.445-0.666-129.381-0.708-134.401
			c2.938-38.32-8.078-50.025-30.813-58.351l-16.478-11l-0.24-58.802c0-18.731-9.657-41.424-55.936-43.2l-96.524,0.101
			c-43.492-29.018-78.955-52.678-84.192-56.156c-8.202-5.432-14.079-8.994-20.781-8.994c-6.487,0-11.753,3.227-20.497,8.585
			c-4.987,3.078-33.645,22.105-85.183,56.561l-95.463-0.094c-45.983,1.766-55.636,24.462-55.636,43.165l-0.234,58.314l-13.721,9.208
			c-0.646,0.042-1.292,0.143-1.916,0.364c-23.55,8.309-33.251,26.219-31.443,58.074L0.006,527.229
			c0.023,0.92,0.127,1.848,0.315,2.773C0.11,530.67,0,531.379,0,532.105c0,10.24,6.481,20.793,17.757,29.08
			c5.186,4.227,11.744,7.746,19.894,10.201c9.601,3.305,20.689,5.307,33.005,5.307l469.271-0.725h0.747
			c6.812,0,13.247-0.549,19.273-1.508c13.417-1.561,24.748-5.57,33.333-11.805c6.54-4.146,11.368-8.906,14.037-13.789
			c0.409-0.27,0.789-0.582,1.14-0.93c1.405-1.412,2.344-2.367,2.899-18.039c0.059-0.949,0.155-1.881,0.155-2.846L611.507,525.047z
			 M558.426,560.25c-3.721,0.432-7.656,0.656-11.793,0.656l-1.341-0.01l-234.347,0.025L67.76,560.896l-1.267,0.01
			c-9.253,0-17.381-1.111-24.3-3.172c-6.325-2.215-11.708-5.053-16.004-8.195c-6.646-5.641-10.228-13.229-10.228-22.428
			l1.175-271.137c0-8.644,2.795-15.4,8.549-20.65c0.25-0.23,0.484-0.474,0.698-0.737c0.416-0.334,1.186-0.919,2.367-1.721
			l8.199-5.51l261.955,170.781c1.666,1.086,3.708,1.434,5.627,0.955c1.052-0.256,1.919-0.32,2.838-0.23
			c1.61,0.17,3.225-0.221,4.588-1.094l264.738-169.655l3.331,2.224c0.201,0.136,0.412,0.26,0.627,0.373
			c10.497,5.556,15.387,13.582,15.387,25.291l1.13,269.664c-0.016,0.877-0.035,1.756-0.055,2.564
			c-0.312,9-4.198,16.676-11.364,22.225C579.605,554.416,570.53,558.264,558.426,560.25z M60.374,211.621
			c1.974-1.325,3.166-3.545,3.175-5.922l0.25-62.146c0-11.702,4.338-27.43,41.574-28.868l97.359,0.101c0,0,0.003,0,0.007,0
			c1.418,0,2.802-0.422,3.984-1.211c65.432-43.749,83.183-55.412,86.53-57.477c6.351-3.89,10.546-6.458,12.994-6.458
			c2.416,0,6.553,2.422,12.865,6.601c5.289,3.517,41.661,27.784,85.969,57.341c1.175,0.783,2.562,1.205,3.978,1.205
			c0.003,0,0.006,0,0.006,0l98.418-0.107c37.531,1.441,41.872,17.169,41.872,28.901l0.257,62.646
			c0.01,2.383,1.204,4.607,3.188,5.929l10.896,7.273L306.11,384.498c-0.575,0.012-1.149,0.047-1.721,0.104L49.873,218.677
			L60.374,211.621z"/>
		<path d="M208.319,307.781c25.258,21.641,56.919,32.615,94.099,32.615c22.365,0,44.022-4.098,64.396-12.191
			c21.018-8.455,38.675-20.316,52.48-35.258c2.686-2.906,2.504-7.438-0.402-10.124c-2.906-2.685-7.438-2.503-10.124,0.403
			c-12.354,13.371-28.268,24.03-47.272,31.677c-18.656,7.41-38.531,11.164-59.077,11.164c-33.665,0-62.188-9.811-84.765-29.155
			c-22.504-19.371-33.443-44.333-33.443-76.315c0-31.563,10.595-58.52,31.482-80.128c20.835-21.521,50.457-32.43,88.047-32.43
			c22.657,0,41.161,3.692,54.996,10.972c33.019,17.364,49.067,43.232,49.067,79.098c0,19.949-6.568,38.378-19.511,54.763
			c-12.335,15.475-26.884,24.28-44.255,26.719l23.394-131.822c0.37-2.088-0.201-4.231-1.562-5.857
			c-1.363-1.624-3.374-2.562-5.49-2.562h-35.632c-2.926,0-5.497,1.77-6.598,4.377c-8.42-5.721-18.193-8.611-29.193-8.611
			c-24.173,0-43.785,11.461-58.279,34.041c-11.734,18.16-17.686,38.297-17.686,59.857c0,17.608,4.699,32.544,13.946,44.369
			c10.932,14.098,26.576,21.245,46.489,21.245c8.325,0,15.81-1.416,22.212-4.188c3.38-1.445,6.994-3.481,10.939-6.166
			c4.961,5.614,13.254,10.354,27.102,10.354c26.316,0,48.464-11.043,65.842-32.849c15.007-19.001,22.618-40.421,22.618-63.669
			c0-41.109-19.089-71.991-56.73-91.784c-15.917-8.374-36.664-12.621-61.669-12.621c-41.616,0-74.705,12.377-98.343,36.797
			c-23.566,24.375-35.519,54.688-35.519,90.092C169.879,256.494,182.812,285.823,208.319,307.781z M329.4,280.086
			c-9.673-1.02-12.864-5.51-14.429-8.994c-0.903-2.006-2.676-3.487-4.812-4.013c-2.133-0.536-4.396-0.049-6.13,1.305
			c-5.422,4.231-10.14,7.218-14.053,8.894c-4.624,2-10.189,3.016-16.546,3.016c-15.472,0-26.976-5.133-35.184-15.718
			c-7.351-9.4-10.919-21.03-10.919-35.563c0-18.751,5.179-36.275,15.403-52.097c11.861-18.481,26.985-27.469,46.229-27.469
			c11.566,0,20.878,4.127,28.463,12.617c1.821,2.039,4.633,2.857,7.276,2.127c2.633-0.74,4.617-2.909,5.11-5.601l0.906-4.909h21.118
			L329.4,280.086z"/>
		<path d="M293.772,160.378c-16.075,0-28.167,10.962-35.94,32.573c-5.01,13.887-7.549,28.518-7.549,43.486
			c0,8.084,1.659,14.955,5.065,21.004c4.929,8.757,12.546,13.39,22.034,13.39c10.633,0,19.65-5.075,26.06-14.667
			c3.312-4.919,6.507-12.413,9.773-22.914c0-0.006,0.003-0.013,0.006-0.02c4.445-14.449,6.702-28.391,6.702-41.447
			c0-7.672-1.686-14.312-4.948-19.654C310.416,164.443,303.084,160.378,293.772,160.378z M299.522,229.005
			c-2.805,9.017-5.487,15.465-7.984,19.176c-3.795,5.672-8.296,8.315-14.16,8.315c-4.234,0-7.176-1.873-9.543-6.088
			c-2.169-3.851-3.221-8.419-3.221-13.975c0-13.306,2.253-26.3,6.698-38.625c8.309-23.099,18.959-23.099,22.459-23.099
			c4.257,0,6.906,1.416,8.923,4.815c1.922,3.143,2.896,7.267,2.896,12.26C305.588,203.406,303.549,215.93,299.522,229.005z"/>
		<path d="M120.49,529.453c-0.348,0.049-8.884,1.254-39.431-0.082c-24.622-1.068-28.054-26.871-28.359-29.803V292.836
			c0-3.958-3.208-7.166-7.166-7.166s-7.166,3.208-7.166,7.166v207.07c0,0.191,0.009,0.379,0.026,0.57
			c1.149,14.365,11.413,41.879,42.044,43.215c10.877,0.473,19.125,0.629,25.319,0.629c12.153,0,16.397-0.617,17.017-0.725
			c3.877-0.645,6.481-4.291,5.874-8.178C128.042,531.543,124.396,528.859,120.49,529.453z"/>
		<path d="M85.079,209.855c3.958,0,7.166-3.208,7.166-7.166v-58.471c0-3.958-3.208-7.166-7.166-7.166s-7.166,3.208-7.166,7.166
			v58.471C77.913,206.647,81.121,209.855,85.079,209.855z"/>
	</g>
</g>
<g>
</g>
<g>
</g>
<g>
</g>
<g>
</g>
<g>
</g>
<g>
</g>
<g>
</g>
<g>
</g>
<g>
</g>
<g>
</g>
<g>
</g>
<g>
</g>
<g>
</g>
<g>
</g>
<g>
</g>
</svg>
